# xmcd
# 
# Track frame offsets:
#     150
#     19606
#     40970
#     60177
#     79620
#     100989
#     120344
# 
# Disc length: 1733
# 
# Revision: 0
# Processed by: cddbd v1.5.2PL0 Copyright (c) Steve Scherf et al.
# Submitted via: fre:ac v1.0.17
# 
DISCID=4506c307
DTITLE=Various Artist - THE IDOLM@STER CINDERELLA GIRLS STARLIGHT MASTER 04 生存本能ヴァルキュリア
DYEAR=2016
DGENRE=Game
TTITLE0=新田美波、鷺沢文香、橘ありす、高森藍子、相葉夕美 - 生存本能ヴァルキュリア（M@STER VERSION）
TTITLE1=小日向美穂 - 空と風と恋のワルツ
TTITLE2=多田李衣菜 - Sparkling Girl
TTITLE3=オリジナル・カラオケ - 生存本能ヴァルキュリア（M@STER VERSION）　オリジナル・カラオケ
TTITLE4=オリジナル・カラオケ - 空と風と恋のワルツ　オリジナル・カラオケ
TTITLE5=オリジナル・カラオケ - Sparkling Girl　オリジナル・カラオケ
TTITLE6=新田美波、鷺沢文香、橘ありす、高森藍子、相葉夕美 - 生存本能ヴァルキュリア（Game Version）
EXTD=
EXTT0=
EXTT1=
EXTT2=
EXTT3=
EXTT4=
EXTT5=
EXTT6=
PLAYORDER=
